# xmcd
#
# Track frame offsets: 
#        150
#        13026
#        29863
#        49593
#        61220
#        77799
#        91109
#        108761
#        125556
#        142223
#        156738
#        172755
#        190308
#        204672
#        217254
#        229281
#        244809
#        258721
#        276616
#        291958
#        310820
#        324912
#
# Disc length: 4582 seconds
#
# Revision: 0
# Processed by: cddbd v1.5.2PL0 Copyright (c) Steve Scherf et al.
# Submitted via: ExactAudioCopy v0.99pb5
#
DISCID=5711e416
DTITLE=Various Artist - Fussball Sommer 2012 [CD1]
DYEAR=2012
DGENRE=
TTITLE0=Nossa Nossa - Ai Se Eu Te Pego
TTITLE1=Baddiel, Skinner and Lightning Seeds - Three Lions (Original Ver
TTITLE1=sion) [Clean Version]
TTITLE2=Robbie Williams - Let Me Entertain You [2004 Digital Remaster]
TTITLE3=Die Toten Hosen - Azzurro
TTITLE4=Brings - Fußball ist unser Leben
TTITLE5=Roger Cicero - Für nichts auf dieser Welt
TTITLE6=Oliver Pocher - Schwarz und Weiss [Radio Edit]
TTITLE7=Frauenarzt and Manny Marc - Das geht ab (Wir holen die Meistersc
TTITLE7=haft) [Single Version]
TTITLE8=Punk Division - Seven Nation Army [Punk Radio Edit]
TTITLE9=Mandy Capristo - The Way I Like It [Single Version]
TTITLE10=Oceana - Endless Summer [Remady Remix]
TTITLE11=Flo Rida feat. Sia - Wild Ones
TTITLE12=DJ Antoine feat. The Beat Shakers - Ma Chérie [DJ Antoine vs.
TTITLE12=Mad Mark 2k12 Radio Edit]
TTITLE13=Mike Candys feat. Evelyn and Patrick Miller - 2012 (If The Worl
TTITLE13=d Would End) [Radio Mix]
TTITLE14=Lolita Jolie - Non Non Non [Original Radio Edit]
TTITLE15=Bob Sinclar pres. Goleo VI feat. Gary 'Nesta' Pine - Love Gen
TTITLE15=eration [Radio Edit]
TTITLE16=Shaggy - Feel The Rush
TTITLE17=Dario G - Carneval De Paris [Radio Mix]
TTITLE18=Mickie Krause - Schatzi schenk mir ein Foto [EM-Version]
TTITLE19=Peter Wackel - Ladioo [Fussball-Mix]
TTITLE20=Jürgen Drews - Ich bau dir ein Schloss [WM Version]
TTITLE21=Markus Becker - Helikopter [EM-Version]
EXTD=
EXTT0=
EXTT1=
EXTT2=
EXTT3=
EXTT4=
EXTT5=
EXTT6=
EXTT7=
EXTT8=
EXTT9=
EXTT10=
EXTT11=
EXTT12=
EXTT13=
EXTT14=
EXTT15=
EXTT16=
EXTT17=
EXTT18=
EXTT19=
EXTT20=
EXTT21=
PLAYORDER=
